# xmcd
#
# Track frame offsets: 
#        150
#        24755
#        43656
#        67987
#        90159
#        113958
#        135678
#        155026
#        174173
#
# Disc length: 2575 seconds
#
# Revision: 0
# Processed by: cddbd v1.5.1PL0 Copyright (c) Steve Scherf et al.
# Submitted via: ExactAudioCopy v0.95a4
#
DISCID=650a0d09
DTITLE=Rhythm 2 Rhythm - Country workout
DYEAR=1998
DGENRE=Country
TTITLE0=If Bubba can dance 135BMP
TTITLE1=Watermelon Crawl 140BPM
TTITLE2=Kick a little 144BPM
TTITLE3=Third roch from the sun 148BPM
TTITLE4=Girls with guitars 152BPM
TTITLE5=Be my baby tonight 153BPM
TTITLE6=I try to think about Elvis 154BPM
TTITLE7=If the good die young 152BPM
TTITLE8=What the cowgirls do 150BPM
EXTD=
EXTT0=
EXTT1=
EXTT2=
EXTT3=
EXTT4=
EXTT5=
EXTT6=
EXTT7=
EXTT8=
PLAYORDER=
